<mxfile host="app.diagrams.net" modified="2020-10-16T20:31:16.027Z" agent="5.0 (Windows NT 10.0; Win64; x64) AppleWebKit/537.36 (KHTML, like Gecko) Chrome/86.0.4240.75 Safari/537.36 Edg/86.0.622.38" etag="TBgM1W5OGmuBGCju21g5" version="13.8.0" type="github">
  <diagram id="w1ny_MxWfaMJ6_-nbaYE" name="Page-1">
    <mxGraphModel dx="1185" dy="727" grid="1" gridSize="10" guides="1" tooltips="1" connect="1" arrows="1" fold="1" page="1" pageScale="1" pageWidth="850" pageHeight="1100" math="0" shadow="0">
      <root>
        <mxCell id="0" />
        <mxCell id="1" parent="0" />
        <mxCell id="W796ZTXqH1rDsX-mog_A-2" value="" style="ellipse;shape=doubleEllipse;whiteSpace=wrap;html=1;aspect=fixed;" parent="1" vertex="1">
          <mxGeometry x="360" y="50" width="80" height="80" as="geometry" />
        </mxCell>
        <mxCell id="W796ZTXqH1rDsX-mog_A-3" value="" style="ellipse;shape=doubleEllipse;whiteSpace=wrap;html=1;aspect=fixed;" parent="1" vertex="1">
          <mxGeometry x="270" y="210" width="80" height="80" as="geometry" />
        </mxCell>
        <mxCell id="W796ZTXqH1rDsX-mog_A-4" value="" style="ellipse;shape=doubleEllipse;whiteSpace=wrap;html=1;aspect=fixed;" parent="1" vertex="1">
          <mxGeometry x="450" y="210" width="80" height="80" as="geometry" />
        </mxCell>
        <mxCell id="W796ZTXqH1rDsX-mog_A-5" value="" style="endArrow=classic;startArrow=classic;html=1;" parent="1" edge="1">
          <mxGeometry width="50" height="50" relative="1" as="geometry">
            <mxPoint x="330" y="190" as="sourcePoint" />
            <mxPoint x="380" y="140" as="targetPoint" />
          </mxGeometry>
        </mxCell>
        <mxCell id="W796ZTXqH1rDsX-mog_A-7" value="" style="endArrow=classic;startArrow=classic;html=1;" parent="1" edge="1">
          <mxGeometry width="50" height="50" relative="1" as="geometry">
            <mxPoint x="470" y="200" as="sourcePoint" />
            <mxPoint x="430" y="140" as="targetPoint" />
          </mxGeometry>
        </mxCell>
        <mxCell id="W796ZTXqH1rDsX-mog_A-8" value="" style="ellipse;shape=doubleEllipse;whiteSpace=wrap;html=1;aspect=fixed;" parent="1" vertex="1">
          <mxGeometry x="370" y="520" width="80" height="80" as="geometry" />
        </mxCell>
        <mxCell id="W796ZTXqH1rDsX-mog_A-9" value="" style="ellipse;shape=doubleEllipse;whiteSpace=wrap;html=1;aspect=fixed;" parent="1" vertex="1">
          <mxGeometry x="280" y="680" width="80" height="80" as="geometry" />
        </mxCell>
        <mxCell id="W796ZTXqH1rDsX-mog_A-10" value="" style="ellipse;shape=doubleEllipse;whiteSpace=wrap;html=1;aspect=fixed;" parent="1" vertex="1">
          <mxGeometry x="460" y="680" width="80" height="80" as="geometry" />
        </mxCell>
        <mxCell id="W796ZTXqH1rDsX-mog_A-11" value="" style="endArrow=classic;startArrow=classic;html=1;" parent="1" edge="1">
          <mxGeometry width="50" height="50" relative="1" as="geometry">
            <mxPoint x="340" y="660" as="sourcePoint" />
            <mxPoint x="390" y="610" as="targetPoint" />
          </mxGeometry>
        </mxCell>
        <mxCell id="W796ZTXqH1rDsX-mog_A-12" value="" style="endArrow=classic;startArrow=classic;html=1;" parent="1" edge="1">
          <mxGeometry width="50" height="50" relative="1" as="geometry">
            <mxPoint x="480" y="670" as="sourcePoint" />
            <mxPoint x="440" y="610" as="targetPoint" />
          </mxGeometry>
        </mxCell>
        <mxCell id="W796ZTXqH1rDsX-mog_A-13" value="" style="ellipse;shape=doubleEllipse;whiteSpace=wrap;html=1;aspect=fixed;" parent="1" vertex="1">
          <mxGeometry x="530" y="850" width="80" height="80" as="geometry" />
        </mxCell>
        <mxCell id="W796ZTXqH1rDsX-mog_A-14" value="" style="ellipse;shape=doubleEllipse;whiteSpace=wrap;html=1;aspect=fixed;" parent="1" vertex="1">
          <mxGeometry x="440" y="1010" width="80" height="80" as="geometry" />
        </mxCell>
        <mxCell id="W796ZTXqH1rDsX-mog_A-15" value="" style="ellipse;shape=doubleEllipse;whiteSpace=wrap;html=1;aspect=fixed;" parent="1" vertex="1">
          <mxGeometry x="620" y="1010" width="80" height="80" as="geometry" />
        </mxCell>
        <mxCell id="W796ZTXqH1rDsX-mog_A-16" value="" style="endArrow=classic;startArrow=classic;html=1;" parent="1" edge="1">
          <mxGeometry width="50" height="50" relative="1" as="geometry">
            <mxPoint x="500" y="990" as="sourcePoint" />
            <mxPoint x="550" y="940" as="targetPoint" />
          </mxGeometry>
        </mxCell>
        <mxCell id="W796ZTXqH1rDsX-mog_A-17" value="" style="endArrow=classic;startArrow=classic;html=1;" parent="1" edge="1">
          <mxGeometry width="50" height="50" relative="1" as="geometry">
            <mxPoint x="640" y="1000" as="sourcePoint" />
            <mxPoint x="600" y="940" as="targetPoint" />
          </mxGeometry>
        </mxCell>
        <mxCell id="W796ZTXqH1rDsX-mog_A-30" value="" style="endArrow=classic;startArrow=classic;html=1;" parent="1" edge="1">
          <mxGeometry width="50" height="50" relative="1" as="geometry">
            <mxPoint x="560" y="840" as="sourcePoint" />
            <mxPoint x="520" y="780" as="targetPoint" />
          </mxGeometry>
        </mxCell>
        <mxCell id="ae2Zw4WDexVPtWZfdsvK-1" value="" style="line;strokeWidth=2;html=1;" parent="1" vertex="1">
          <mxGeometry x="100" y="410" width="690" height="10" as="geometry" />
        </mxCell>
        <mxCell id="ae2Zw4WDexVPtWZfdsvK-2" value="" style="ellipse;shape=doubleEllipse;whiteSpace=wrap;html=1;aspect=fixed;" parent="1" vertex="1">
          <mxGeometry x="330" y="1770" width="80" height="80" as="geometry" />
        </mxCell>
        <mxCell id="ae2Zw4WDexVPtWZfdsvK-3" value="" style="ellipse;shape=doubleEllipse;whiteSpace=wrap;html=1;aspect=fixed;" parent="1" vertex="1">
          <mxGeometry x="240" y="1930" width="80" height="80" as="geometry" />
        </mxCell>
        <mxCell id="ae2Zw4WDexVPtWZfdsvK-4" value="" style="ellipse;shape=doubleEllipse;whiteSpace=wrap;html=1;aspect=fixed;" parent="1" vertex="1">
          <mxGeometry x="420" y="1930" width="80" height="80" as="geometry" />
        </mxCell>
        <mxCell id="ae2Zw4WDexVPtWZfdsvK-5" value="" style="endArrow=classic;startArrow=classic;html=1;" parent="1" edge="1">
          <mxGeometry width="50" height="50" relative="1" as="geometry">
            <mxPoint x="300" y="1910" as="sourcePoint" />
            <mxPoint x="350" y="1860" as="targetPoint" />
          </mxGeometry>
        </mxCell>
        <mxCell id="ae2Zw4WDexVPtWZfdsvK-6" value="" style="endArrow=classic;startArrow=classic;html=1;" parent="1" edge="1">
          <mxGeometry width="50" height="50" relative="1" as="geometry">
            <mxPoint x="440" y="1920" as="sourcePoint" />
            <mxPoint x="400" y="1860" as="targetPoint" />
          </mxGeometry>
        </mxCell>
        <mxCell id="ae2Zw4WDexVPtWZfdsvK-13" value="" style="line;strokeWidth=2;html=1;" parent="1" vertex="1">
          <mxGeometry x="100" y="1140" width="690" height="10" as="geometry" />
        </mxCell>
        <mxCell id="ae2Zw4WDexVPtWZfdsvK-15" value="" style="ellipse;shape=doubleEllipse;whiteSpace=wrap;html=1;aspect=fixed;" parent="1" vertex="1">
          <mxGeometry x="600" y="1930" width="80" height="80" as="geometry" />
        </mxCell>
        <mxCell id="ae2Zw4WDexVPtWZfdsvK-16" value="" style="endArrow=classic;startArrow=classic;html=1;" parent="1" edge="1">
          <mxGeometry width="50" height="50" relative="1" as="geometry">
            <mxPoint x="610" y="1930" as="sourcePoint" />
            <mxPoint x="420" y="1840" as="targetPoint" />
          </mxGeometry>
        </mxCell>
        <mxCell id="ae2Zw4WDexVPtWZfdsvK-18" value="" style="ellipse;shape=doubleEllipse;whiteSpace=wrap;html=1;aspect=fixed;" parent="1" vertex="1">
          <mxGeometry x="150" y="2100" width="80" height="80" as="geometry" />
        </mxCell>
        <mxCell id="ae2Zw4WDexVPtWZfdsvK-19" value="" style="ellipse;shape=doubleEllipse;whiteSpace=wrap;html=1;aspect=fixed;" parent="1" vertex="1">
          <mxGeometry x="330" y="2100" width="80" height="80" as="geometry" />
        </mxCell>
        <mxCell id="ae2Zw4WDexVPtWZfdsvK-20" value="" style="endArrow=classic;startArrow=classic;html=1;" parent="1" edge="1">
          <mxGeometry width="50" height="50" relative="1" as="geometry">
            <mxPoint x="210" y="2080" as="sourcePoint" />
            <mxPoint x="260" y="2030" as="targetPoint" />
          </mxGeometry>
        </mxCell>
        <mxCell id="ae2Zw4WDexVPtWZfdsvK-21" value="" style="endArrow=classic;startArrow=classic;html=1;" parent="1" edge="1">
          <mxGeometry width="50" height="50" relative="1" as="geometry">
            <mxPoint x="350" y="2090" as="sourcePoint" />
            <mxPoint x="310" y="2030" as="targetPoint" />
          </mxGeometry>
        </mxCell>
        <mxCell id="ae2Zw4WDexVPtWZfdsvK-22" value="" style="ellipse;shape=doubleEllipse;whiteSpace=wrap;html=1;aspect=fixed;" parent="1" vertex="1">
          <mxGeometry x="150" y="1770" width="80" height="80" as="geometry" />
        </mxCell>
        <mxCell id="ae2Zw4WDexVPtWZfdsvK-23" value="" style="endArrow=classic;startArrow=classic;html=1;" parent="1" edge="1">
          <mxGeometry width="50" height="50" relative="1" as="geometry">
            <mxPoint x="240" y="1920" as="sourcePoint" />
            <mxPoint x="200" y="1860" as="targetPoint" />
          </mxGeometry>
        </mxCell>
        <mxCell id="ae2Zw4WDexVPtWZfdsvK-24" value="" style="endArrow=classic;startArrow=classic;html=1;" parent="1" edge="1">
          <mxGeometry width="50" height="50" relative="1" as="geometry">
            <mxPoint x="390" y="2080" as="sourcePoint" />
            <mxPoint x="440" y="2030" as="targetPoint" />
          </mxGeometry>
        </mxCell>
        <mxCell id="ae2Zw4WDexVPtWZfdsvK-25" value="" style="ellipse;shape=doubleEllipse;whiteSpace=wrap;html=1;aspect=fixed;" parent="1" vertex="1">
          <mxGeometry x="510" y="2090" width="80" height="80" as="geometry" />
        </mxCell>
        <mxCell id="ae2Zw4WDexVPtWZfdsvK-26" value="" style="endArrow=classic;startArrow=classic;html=1;" parent="1" edge="1">
          <mxGeometry width="50" height="50" relative="1" as="geometry">
            <mxPoint x="530" y="2090" as="sourcePoint" />
            <mxPoint x="490" y="2030" as="targetPoint" />
          </mxGeometry>
        </mxCell>
        <mxCell id="ae2Zw4WDexVPtWZfdsvK-27" value="" style="ellipse;shape=doubleEllipse;whiteSpace=wrap;html=1;aspect=fixed;" parent="1" vertex="1">
          <mxGeometry x="240" y="1610" width="80" height="80" as="geometry" />
        </mxCell>
        <mxCell id="ae2Zw4WDexVPtWZfdsvK-28" value="" style="endArrow=classic;startArrow=classic;html=1;" parent="1" edge="1">
          <mxGeometry width="50" height="50" relative="1" as="geometry">
            <mxPoint x="350" y="1760" as="sourcePoint" />
            <mxPoint x="310" y="1700" as="targetPoint" />
          </mxGeometry>
        </mxCell>
        <mxCell id="ae2Zw4WDexVPtWZfdsvK-29" value="" style="endArrow=classic;startArrow=classic;html=1;" parent="1" edge="1">
          <mxGeometry width="50" height="50" relative="1" as="geometry">
            <mxPoint x="200" y="1750" as="sourcePoint" />
            <mxPoint x="250" y="1700" as="targetPoint" />
          </mxGeometry>
        </mxCell>
        <mxCell id="TsMirJgqwP6mqNRy0Kv4-1" value="" style="ellipse;shape=doubleEllipse;whiteSpace=wrap;html=1;aspect=fixed;" vertex="1" parent="1">
          <mxGeometry x="390" y="1160" width="80" height="80" as="geometry" />
        </mxCell>
        <mxCell id="TsMirJgqwP6mqNRy0Kv4-9" value="&lt;h1&gt;Test Scenario 1&lt;/h1&gt;&lt;p&gt;Basic root with two children&lt;/p&gt;" style="text;html=1;strokeColor=none;fillColor=none;spacing=5;spacingTop=-20;whiteSpace=wrap;overflow=hidden;rounded=0;" vertex="1" parent="1">
          <mxGeometry x="70" y="30" width="190" height="120" as="geometry" />
        </mxCell>
        <mxCell id="TsMirJgqwP6mqNRy0Kv4-16" value="&lt;h1&gt;Test Scenario 3&lt;/h1&gt;&lt;p&gt;&lt;br&gt;&lt;/p&gt;" style="text;html=1;strokeColor=none;fillColor=none;spacing=5;spacingTop=-20;whiteSpace=wrap;overflow=hidden;rounded=0;" vertex="1" parent="1">
          <mxGeometry x="55" y="520" width="190" height="120" as="geometry" />
        </mxCell>
        <mxCell id="TsMirJgqwP6mqNRy0Kv4-17" value="" style="ellipse;shape=doubleEllipse;whiteSpace=wrap;html=1;aspect=fixed;" vertex="1" parent="1">
          <mxGeometry x="240" y="1470" width="80" height="80" as="geometry" />
        </mxCell>
        <mxCell id="TsMirJgqwP6mqNRy0Kv4-18" value="" style="ellipse;shape=doubleEllipse;whiteSpace=wrap;html=1;aspect=fixed;" vertex="1" parent="1">
          <mxGeometry x="240" y="1270" width="80" height="80" as="geometry" />
        </mxCell>
        <mxCell id="TsMirJgqwP6mqNRy0Kv4-19" value="" style="ellipse;shape=doubleEllipse;whiteSpace=wrap;html=1;aspect=fixed;" vertex="1" parent="1">
          <mxGeometry x="520" y="1470" width="80" height="80" as="geometry" />
        </mxCell>
        <mxCell id="TsMirJgqwP6mqNRy0Kv4-20" value="" style="ellipse;shape=doubleEllipse;whiteSpace=wrap;html=1;aspect=fixed;" vertex="1" parent="1">
          <mxGeometry x="520" y="1270" width="80" height="80" as="geometry" />
        </mxCell>
        <mxCell id="TsMirJgqwP6mqNRy0Kv4-21" value="" style="endArrow=classic;html=1;" edge="1" parent="1">
          <mxGeometry width="50" height="50" relative="1" as="geometry">
            <mxPoint x="285" y="1360" as="sourcePoint" />
            <mxPoint x="285" y="1460" as="targetPoint" />
          </mxGeometry>
        </mxCell>
        <mxCell id="TsMirJgqwP6mqNRy0Kv4-22" value="" style="endArrow=classic;html=1;" edge="1" parent="1">
          <mxGeometry width="50" height="50" relative="1" as="geometry">
            <mxPoint x="319" y="1350" as="sourcePoint" />
            <mxPoint x="520" y="1480" as="targetPoint" />
          </mxGeometry>
        </mxCell>
        <mxCell id="TsMirJgqwP6mqNRy0Kv4-23" value="" style="endArrow=classic;html=1;" edge="1" parent="1">
          <mxGeometry width="50" height="50" relative="1" as="geometry">
            <mxPoint x="520" y="1350" as="sourcePoint" />
            <mxPoint x="340" y="1480" as="targetPoint" />
          </mxGeometry>
        </mxCell>
        <mxCell id="TsMirJgqwP6mqNRy0Kv4-24" value="" style="endArrow=classic;html=1;" edge="1" parent="1">
          <mxGeometry width="50" height="50" relative="1" as="geometry">
            <mxPoint x="559.5000000000002" y="1360" as="sourcePoint" />
            <mxPoint x="559.5000000000002" y="1460" as="targetPoint" />
          </mxGeometry>
        </mxCell>
        <mxCell id="TsMirJgqwP6mqNRy0Kv4-25" value="" style="line;strokeWidth=2;html=1;" vertex="1" parent="1">
          <mxGeometry x="100" y="1590" width="690" height="10" as="geometry" />
        </mxCell>
        <mxCell id="TsMirJgqwP6mqNRy0Kv4-26" value="" style="endArrow=classic;startArrow=classic;html=1;" edge="1" parent="1">
          <mxGeometry width="50" height="50" relative="1" as="geometry">
            <mxPoint x="330" y="1290.0000000000002" as="sourcePoint" />
            <mxPoint x="380" y="1240.0000000000002" as="targetPoint" />
          </mxGeometry>
        </mxCell>
        <mxCell id="TsMirJgqwP6mqNRy0Kv4-27" value="" style="endArrow=classic;startArrow=classic;html=1;" edge="1" parent="1">
          <mxGeometry width="50" height="50" relative="1" as="geometry">
            <mxPoint x="520" y="1300.0000000000002" as="sourcePoint" />
            <mxPoint x="480" y="1240.0000000000002" as="targetPoint" />
          </mxGeometry>
        </mxCell>
        <mxCell id="TsMirJgqwP6mqNRy0Kv4-28" value="&lt;h1&gt;Test Scenario 2&lt;/h1&gt;&lt;p&gt;Two unique parents sharing the same children&lt;/p&gt;" style="text;html=1;strokeColor=none;fillColor=none;spacing=5;spacingTop=-20;whiteSpace=wrap;overflow=hidden;rounded=0;" vertex="1" parent="1">
          <mxGeometry x="110" y="1170" width="190" height="120" as="geometry" />
        </mxCell>
        <mxCell id="TsMirJgqwP6mqNRy0Kv4-41" value="level 0" style="text;html=1;strokeColor=none;fillColor=none;align=center;verticalAlign=middle;whiteSpace=wrap;rounded=0;" vertex="1" parent="1">
          <mxGeometry x="750" y="530" width="40" height="20" as="geometry" />
        </mxCell>
        <mxCell id="TsMirJgqwP6mqNRy0Kv4-42" value="level 1" style="text;html=1;strokeColor=none;fillColor=none;align=center;verticalAlign=middle;whiteSpace=wrap;rounded=0;" vertex="1" parent="1">
          <mxGeometry x="750" y="700" width="40" height="20" as="geometry" />
        </mxCell>
        <mxCell id="TsMirJgqwP6mqNRy0Kv4-43" value="level 2" style="text;html=1;strokeColor=none;fillColor=none;align=center;verticalAlign=middle;whiteSpace=wrap;rounded=0;" vertex="1" parent="1">
          <mxGeometry x="750" y="870" width="50" height="20" as="geometry" />
        </mxCell>
        <mxCell id="TsMirJgqwP6mqNRy0Kv4-45" value="level 3" style="text;html=1;strokeColor=none;fillColor=none;align=center;verticalAlign=middle;whiteSpace=wrap;rounded=0;" vertex="1" parent="1">
          <mxGeometry x="750" y="1030" width="50" height="20" as="geometry" />
        </mxCell>
      </root>
    </mxGraphModel>
  </diagram>
</mxfile>
